<mxfile host="Electron" modified="2024-01-20T19:15:28.047Z" agent="Mozilla/5.0 (Macintosh; Intel Mac OS X 10_15_7) AppleWebKit/537.36 (KHTML, like Gecko) draw.io/22.1.21 Chrome/120.0.6099.109 Electron/28.1.0 Safari/537.36" etag="ae84-F5RBSWuVKmYvv1V" version="22.1.21" type="device">
  <diagram name="Page-1" id="Fw8NfbHgm1xMdtgPzNOa">
    <mxGraphModel dx="954" dy="727" grid="1" gridSize="10" guides="1" tooltips="1" connect="1" arrows="1" fold="1" page="1" pageScale="1" pageWidth="900" pageHeight="1600" math="0" shadow="0">
      <root>
        <mxCell id="0" />
        <mxCell id="1" parent="0" />
        <mxCell id="6oQ2LLlVHaS02DkyiK-s-1" value="devices" style="sketch=0;outlineConnect=0;gradientColor=none;fontColor=#545B64;strokeColor=none;fillColor=#879196;dashed=0;verticalLabelPosition=bottom;verticalAlign=top;align=center;html=1;fontSize=12;fontStyle=0;aspect=fixed;shape=mxgraph.aws4.illustration_devices;pointerEvents=1" vertex="1" parent="1">
          <mxGeometry x="57" y="300" width="82.19" height="60" as="geometry" />
        </mxCell>
        <mxCell id="6oQ2LLlVHaS02DkyiK-s-2" value="Nginx" style="outlineConnect=0;gradientColor=none;html=1;whiteSpace=wrap;fontSize=12;fontStyle=0;strokeColor=#FF9900;fillColor=none;verticalAlign=top;align=center;fontColor=#FF9900;dashed=0;spacingTop=3;" vertex="1" parent="1">
          <mxGeometry x="180" y="196.5" width="460" height="280" as="geometry" />
        </mxCell>
        <mxCell id="6oQ2LLlVHaS02DkyiK-s-3" value="Read Request" style="rounded=1;whiteSpace=wrap;html=1;absoluteArcSize=1;arcSize=14;strokeWidth=2;" vertex="1" parent="1">
          <mxGeometry x="220" y="240" width="100" height="60" as="geometry" />
        </mxCell>
        <mxCell id="6oQ2LLlVHaS02DkyiK-s-12" style="edgeStyle=orthogonalEdgeStyle;rounded=0;orthogonalLoop=1;jettySize=auto;html=1;exitX=1;exitY=0.5;exitDx=0;exitDy=0;entryX=0;entryY=0.5;entryDx=0;entryDy=0;" edge="1" parent="1" source="6oQ2LLlVHaS02DkyiK-s-4" target="6oQ2LLlVHaS02DkyiK-s-5">
          <mxGeometry relative="1" as="geometry" />
        </mxCell>
        <mxCell id="6oQ2LLlVHaS02DkyiK-s-20" value="Miss" style="edgeLabel;html=1;align=center;verticalAlign=middle;resizable=0;points=[];" vertex="1" connectable="0" parent="6oQ2LLlVHaS02DkyiK-s-12">
          <mxGeometry x="-0.4" y="-1" relative="1" as="geometry">
            <mxPoint as="offset" />
          </mxGeometry>
        </mxCell>
        <mxCell id="6oQ2LLlVHaS02DkyiK-s-18" style="edgeStyle=orthogonalEdgeStyle;rounded=0;orthogonalLoop=1;jettySize=auto;html=1;exitX=0.5;exitY=1;exitDx=0;exitDy=0;entryX=0.25;entryY=0;entryDx=0;entryDy=0;" edge="1" parent="1" source="6oQ2LLlVHaS02DkyiK-s-4" target="6oQ2LLlVHaS02DkyiK-s-8">
          <mxGeometry relative="1" as="geometry" />
        </mxCell>
        <mxCell id="6oQ2LLlVHaS02DkyiK-s-21" value="Hit" style="edgeLabel;html=1;align=center;verticalAlign=middle;resizable=0;points=[];" vertex="1" connectable="0" parent="6oQ2LLlVHaS02DkyiK-s-18">
          <mxGeometry x="-0.786" y="1" relative="1" as="geometry">
            <mxPoint as="offset" />
          </mxGeometry>
        </mxCell>
        <mxCell id="6oQ2LLlVHaS02DkyiK-s-4" value="Cache Check" style="rounded=1;whiteSpace=wrap;html=1;absoluteArcSize=1;arcSize=14;strokeWidth=2;" vertex="1" parent="1">
          <mxGeometry x="350" y="240" width="100" height="60" as="geometry" />
        </mxCell>
        <mxCell id="6oQ2LLlVHaS02DkyiK-s-5" value="Wait?&lt;br&gt;cache lock timeout" style="rounded=1;whiteSpace=wrap;html=1;absoluteArcSize=1;arcSize=14;strokeWidth=2;" vertex="1" parent="1">
          <mxGeometry x="499" y="240" width="100" height="60" as="geometry" />
        </mxCell>
        <mxCell id="6oQ2LLlVHaS02DkyiK-s-15" style="edgeStyle=orthogonalEdgeStyle;rounded=0;orthogonalLoop=1;jettySize=auto;html=1;exitX=0;exitY=0.5;exitDx=0;exitDy=0;entryX=1;entryY=0.5;entryDx=0;entryDy=0;" edge="1" parent="1" source="6oQ2LLlVHaS02DkyiK-s-6" target="6oQ2LLlVHaS02DkyiK-s-7">
          <mxGeometry relative="1" as="geometry" />
        </mxCell>
        <mxCell id="6oQ2LLlVHaS02DkyiK-s-6" value="Response cachable" style="rounded=1;whiteSpace=wrap;html=1;absoluteArcSize=1;arcSize=14;strokeWidth=2;" vertex="1" parent="1">
          <mxGeometry x="480" y="360" width="110" height="60" as="geometry" />
        </mxCell>
        <mxCell id="6oQ2LLlVHaS02DkyiK-s-16" style="edgeStyle=orthogonalEdgeStyle;rounded=0;orthogonalLoop=1;jettySize=auto;html=1;exitX=0;exitY=0.5;exitDx=0;exitDy=0;entryX=1;entryY=0.5;entryDx=0;entryDy=0;" edge="1" parent="1" source="6oQ2LLlVHaS02DkyiK-s-7" target="6oQ2LLlVHaS02DkyiK-s-8">
          <mxGeometry relative="1" as="geometry" />
        </mxCell>
        <mxCell id="6oQ2LLlVHaS02DkyiK-s-7" value="stream to disk" style="rounded=1;whiteSpace=wrap;html=1;absoluteArcSize=1;arcSize=14;strokeWidth=2;" vertex="1" parent="1">
          <mxGeometry x="350" y="360" width="100" height="60" as="geometry" />
        </mxCell>
        <mxCell id="6oQ2LLlVHaS02DkyiK-s-17" style="edgeStyle=orthogonalEdgeStyle;rounded=0;orthogonalLoop=1;jettySize=auto;html=1;exitX=0;exitY=0.5;exitDx=0;exitDy=0;" edge="1" parent="1" source="6oQ2LLlVHaS02DkyiK-s-8" target="6oQ2LLlVHaS02DkyiK-s-1">
          <mxGeometry relative="1" as="geometry" />
        </mxCell>
        <mxCell id="6oQ2LLlVHaS02DkyiK-s-8" value="respond from cache" style="rounded=1;whiteSpace=wrap;html=1;absoluteArcSize=1;arcSize=14;strokeWidth=2;" vertex="1" parent="1">
          <mxGeometry x="220" y="360" width="100" height="60" as="geometry" />
        </mxCell>
        <mxCell id="6oQ2LLlVHaS02DkyiK-s-14" style="edgeStyle=orthogonalEdgeStyle;rounded=0;orthogonalLoop=1;jettySize=auto;html=1;exitX=0.5;exitY=1;exitDx=0;exitDy=0;exitPerimeter=0;" edge="1" parent="1" source="6oQ2LLlVHaS02DkyiK-s-9" target="6oQ2LLlVHaS02DkyiK-s-6">
          <mxGeometry relative="1" as="geometry" />
        </mxCell>
        <mxCell id="6oQ2LLlVHaS02DkyiK-s-9" value="Origin Server" style="outlineConnect=0;dashed=0;verticalLabelPosition=bottom;verticalAlign=top;align=center;html=1;shape=mxgraph.aws3.ec2;fillColor=#F58534;gradientColor=none;" vertex="1" parent="1">
          <mxGeometry x="668" y="300" width="70" height="70" as="geometry" />
        </mxCell>
        <mxCell id="6oQ2LLlVHaS02DkyiK-s-10" value="" style="edgeStyle=segmentEdgeStyle;endArrow=classic;html=1;curved=0;rounded=0;endSize=8;startSize=8;entryX=0;entryY=0.5;entryDx=0;entryDy=0;" edge="1" parent="1" target="6oQ2LLlVHaS02DkyiK-s-3">
          <mxGeometry width="50" height="50" relative="1" as="geometry">
            <mxPoint x="100" y="290" as="sourcePoint" />
            <mxPoint x="90" y="180" as="targetPoint" />
            <Array as="points">
              <mxPoint x="100" y="270" />
            </Array>
          </mxGeometry>
        </mxCell>
        <mxCell id="6oQ2LLlVHaS02DkyiK-s-11" value="" style="endArrow=classic;html=1;rounded=0;entryX=0;entryY=0.5;entryDx=0;entryDy=0;" edge="1" parent="1" target="6oQ2LLlVHaS02DkyiK-s-4">
          <mxGeometry width="50" height="50" relative="1" as="geometry">
            <mxPoint x="320" y="270" as="sourcePoint" />
            <mxPoint x="390" y="70" as="targetPoint" />
          </mxGeometry>
        </mxCell>
        <mxCell id="6oQ2LLlVHaS02DkyiK-s-13" style="edgeStyle=orthogonalEdgeStyle;rounded=0;orthogonalLoop=1;jettySize=auto;html=1;exitX=1;exitY=0.5;exitDx=0;exitDy=0;entryX=0.5;entryY=0;entryDx=0;entryDy=0;entryPerimeter=0;" edge="1" parent="1" source="6oQ2LLlVHaS02DkyiK-s-5" target="6oQ2LLlVHaS02DkyiK-s-9">
          <mxGeometry relative="1" as="geometry" />
        </mxCell>
        <mxCell id="6oQ2LLlVHaS02DkyiK-s-19" style="edgeStyle=orthogonalEdgeStyle;rounded=0;orthogonalLoop=1;jettySize=auto;html=1;exitX=0.5;exitY=1;exitDx=0;exitDy=0;entryX=0.66;entryY=0;entryDx=0;entryDy=0;entryPerimeter=0;" edge="1" parent="1" source="6oQ2LLlVHaS02DkyiK-s-5" target="6oQ2LLlVHaS02DkyiK-s-8">
          <mxGeometry relative="1" as="geometry">
            <Array as="points">
              <mxPoint x="530" y="340" />
              <mxPoint x="286" y="340" />
            </Array>
          </mxGeometry>
        </mxCell>
      </root>
    </mxGraphModel>
  </diagram>
</mxfile>
